<?xml version="1.0" encoding="UTF-8"?>
<svg width="1475.2" height="601.75" version="1.1" viewBox="0 0 1475.2267 601.74664" xml:space="preserve" xmlns="http://www.w3.org/2000/svg" xmlns:cc="http://creativecommons.org/ns#" xmlns:dc="http://purl.org/dc/elements/1.1/" xmlns:rdf="http://www.w3.org/1999/02/22-rdf-syntax-ns#"><metadata><rdf:RDF><cc:Work rdf:about=""><dc:format>image/svg+xml</dc:format><dc:type rdf:resource="http://purl.org/dc/dcmitype/StillImage"/></cc:Work></rdf:RDF></metadata><g transform="matrix(1.3333 0 0 -1.3333 0 601.75)"><g transform="scale(.1)" fill="#fff"><path d="m4238.8 1170c-70.97-25.9-146.36-38.93-226.3-38.93-133.03 0-237.8 27.03-314.07 81.09-76.36 53.97-114.49 128.97-114.49 225.24 0 10.37 0.49 20.33 1.37 29.96 0.9 9.61 2.19 19.61 3.96 30l125.1 727.98h596.33l-103.77-617.04c-1.8-7.41-3.17-14.81-4.02-22.17-0.94-7.46-1.37-14.81-1.37-22.23 0-29.61 8.4-52.91 25.29-69.84 16.9-17.09 44.86-25.57 83.87-25.57 40.8 0 73.2 12.17 97.17 36.6 23.96 24.44 46.56 54.34 67.93 89.91l106.46 630.34h596.23l-178.3-1069.8h-575.06l26.66 157.6c-70.99-69.57-141.99-117.26-212.99-143.1"/><path d="m6061.1 2744.7-266.17-1589.2h-596.33l266.23 1589.2h596.27"/><path d="m8138.6 1608.2c0-44.4 11.09-80.28 33.26-107.7 22.17-27.34 61.7-41.03 118.48-41.03 24.82 0 50.09 5.62 75.8 16.66 25.76 11.07 51.09 24.1 75.95 38.86l55.84 326.27c-19.53 20.71-39 35.47-58.43 44.4-19.63 8.86-44.44 13.3-74.63 13.3-28.4 0-56.41-4.77-83.87-14.4-27.44-9.66-51.93-25.5-73.2-47.77-21.33-22.17-38.17-51.8-50.57-88.73-12.46-37.03-18.63-83.63-18.63-139.86m105.13-432.74c-61.23-29.63-123.76-44.49-187.63-44.49-186.37 0-323.87 38.93-412.64 116.56-88.79 77.64-133.12 183.87-133.12 318.5 0 97.69 15.93 188.3 47.93 271.89 31.97 83.58 77.59 156.04 137.07 217.54 59.49 61.37 132.69 109.1 219.63 143.16 86.97 34.03 186.32 51.06 298.16 51.06 79.86 0 145.94-14.11 198.34-42.23 52.32-28.07 93.5-74.72 123.79-139.82l26.6 157.61h598.97l-180.94-1069.8h-567.09l23.96 139.83c-67.46-50.29-131.74-90.24-193.03-119.77"/><path d="m10101 2210.8c71 25.96 146.4 38.89 226.3 38.89 133.1 0 237.8-27.03 314-81.02 76.3-54.04 114.6-129.14 114.6-225.33 0-10.31-0.5-20.31-1.4-29.94-1-9.63-2.3-19.57-4-29.9l-125.1-728.09h-596.3l103.9 617.13c1.7 7.27 3 14.73 3.9 22.13s1.4 14.73 1.4 22.17c0 29.63-8.5 52.93-25.3 69.96-16.9 16.97-44.9 25.57-83.9 25.57-40.85 0-73.22-12.27-97.18-36.7-23.97-24.44-46.56-54.34-67.87-89.87l-106.47-630.39h-596.32l178.33 1069.8h575.02l-26.66-157.61c71.04 69.53 142.05 117.26 213.05 143.16"/><path d="m7451.8 2193-46.83-311.7h-522.5c-96.14 0-155.39-69.76-177.93-209.25-2.74-16.88-4.2-32.91-4.2-48.4 0-95.37 47.4-143.01 142.13-143.01h520.46l-48.3-326.33-677.65 2.13c-208.3 0-359.57 37.4-453.87 112.27-81.33 64.29-122.03 160.43-122.03 288.53 0 32.78 2.5 68.5 7.56 106.97 48.77 353.13 292.93 529.45 732.4 528.79h650.76"/><path d="m2833.4 539.85h-101.69v82.718h291.25v-82.718h-101.68v-530.78h-87.88v530.78"/><path d="m3086.8 622.57h87.89v-262.8h108.56v262.8h87.9v-613.5h-87.9v273.14h-108.56v-273.14h-87.89v613.5"/><path d="m3457.8 622.57h261.95v-82.718h-174.06v-180.08h151.65v-82.731h-151.65v-180.09h174.06v-87.879h-261.95v613.5"/><path d="m4069.5 331.33h42.22c71.52 0 72.39 42.219 72.39 103.4 0 57.731 0 105.12-68.94 105.12h-45.67zm-87.89 291.24h131.84c48.25 0 83.58-11.191 113.73-43.082 30.17-31.879 39.65-70.648 39.65-143.9 0-53.418-4.32-89.61-25-123.22-24.12-39.629-62.9-63.762-127.52-63.762h-44.81v-239.54h-87.89v613.5"/><path d="m4430.6 348.57h49.98c61.17 0 70.65 34.461 70.65 95.641 0 62.039-10.34 95.641-74.96 95.641h-45.67zm-87.89 274h141.32c104.25 0 155.09-61.172 155.09-180.09 0-70.648-19.81-122.35-75.82-153.37l94.78-280.04h-93.06l-81.86 261.94h-52.56v-261.94h-87.89v613.5"/><path d="m4803 153.83c0-42.23 27.57-62.043 59.45-62.043 31.89 0 59.47 19.813 59.47 62.043v323.98c0 42.23-27.58 62.043-59.47 62.043-31.88 0-59.45-19.813-59.45-62.043zm-87.89 323.98c0 99.961 75.83 149.93 147.34 149.93 71.53 0 147.35-49.972 147.35-149.93v-323.98c0-99.953-75.82-149.93-147.35-149.93-71.51 0-147.34 49.98-147.34 149.93v323.98"/><path d="m5268.2 9.0703h-77.55l-124.95 613.5h93.07l69.8-428.25h1.71l70.66 428.25h93.07l-125.81-613.5"/><path d="m5464 622.57h261.95v-82.718h-174.06v-180.08h151.65v-82.731h-151.65v-180.09h174.06v-87.879h-261.95v613.5"/><path d="m5796.4 622.57h84.45l132.7-369.65h1.72v369.65h87.89v-613.5h-82.72l-134.41 368.79h-1.73v-368.79h-87.9v613.5"/><path d="m6671.8 445.94h-87.9v19.809c0 40.5-17.22 74.102-62.02 74.102-48.27 0-59.47-38.77-59.47-79.27 0-47.391 4.32-63.762 49.98-81.863l67.21-26.707c77.55-29.301 92.2-78.41 92.2-168.02 0-103.4-37.92-180.09-151.65-180.09-85.31 0-149.93 62.902-149.93 145.62v32.742h87.89v-27.571c0-31.882 17.23-62.902 62.04-62.902 59.45 0 63.75 35.332 63.75 91.34 0 65.48-7.74 75.82-50.83 93.051l-62.9 25.859c-75.83 31.012-95.64 80.992-95.64 157.68 0 93.062 49.98 168.02 150.79 168.02 87.88 0 146.48-70.66 146.48-138.73v-43.071"/><path d="m7029.7 146.07c0-75.828-61.19-142.17-139.6-142.17-67.2 0-144.76 32.742-144.76 144.76v337.77c0 80.14 57.73 141.31 143.04 141.31 80.99 0 141.32-61.172 141.32-146.47v-34.481h-87.9v29.301c0 34.469-20.68 63.762-54.29 63.762-43.94 0-54.28-30.161-54.28-71.52v-313.64c0-35.332 13.79-62.902 53.42-62.902 24.13 0 55.15 13.781 55.15 62.043v30.16h87.9v-37.922"/><path d="m7196.2 348.57h49.98c61.18 0 70.66 34.461 70.66 95.641 0 62.039-10.35 95.641-74.96 95.641h-45.68zm-87.89 274h141.31c104.26 0 155.11-61.172 155.11-180.09 0-70.648-19.82-122.35-75.83-153.37l94.78-280.04h-93.05l-81.86 261.94h-52.57v-261.94h-87.89v613.5"/><path d="m7493.4 622.57h261.95v-82.718h-174.06v-180.08h151.65v-82.731h-151.65v-180.09h174.06v-87.879h-261.95v613.5"/><path d="m7827.3 622.57h261.94v-82.718h-174.06v-180.08h151.66v-82.731h-151.66v-180.09h174.06v-87.879h-261.94v613.5"/><path d="m8159.8 622.57h84.43l132.7-369.65h1.73v369.65h87.89v-613.5h-82.72l-134.43 368.79h-1.71v-368.79h-87.89v613.5"/><path d="m9030 146.07c0-75.828-61.19-142.17-139.59-142.17-67.21 0-144.76 32.742-144.76 144.76v337.77c0 80.14 57.72 141.31 143.03 141.31 81 0 141.32-61.172 141.32-146.47v-34.481h-87.9v29.301c0 34.469-20.68 63.762-54.28 63.762-43.95 0-54.28-30.161-54.28-71.52v-313.64c0-35.332 13.78-62.902 53.42-62.902 24.13 0 55.14 13.781 55.14 62.043v30.16h87.9v-37.922"/><path d="m9108.6 622.57h87.88v-262.8h108.58v262.8h87.89v-613.5h-87.89v273.14h-108.58v-273.14h-87.88v613.5"/><path d="m9563.4 153.83c0-42.23 27.57-62.043 59.45-62.043 31.89 0 59.46 19.813 59.46 62.043v323.98c0 42.23-27.57 62.043-59.46 62.043-31.88 0-59.45-19.813-59.45-62.043zm-87.89 323.98c0 99.961 75.83 149.93 147.34 149.93 71.52 0 147.35-49.972 147.35-149.93v-323.98c0-99.953-75.83-149.93-147.35-149.93-71.51 0-147.34 49.98-147.34 149.93v323.98"/><path d="m9854.5 9.0703h87.891v613.5h-87.891z"/><path d="m10311 146.07c0-75.828-61.2-142.17-139.6-142.17-67.2 0-144.8 32.742-144.8 144.76v337.77c0 80.14 57.8 141.31 143.1 141.31 81 0 141.3-61.172 141.3-146.47v-34.481h-87.9v29.301c0 34.469-20.7 63.762-54.3 63.762-43.9 0-54.3-30.161-54.3-71.52v-313.64c0-35.332 13.8-62.902 53.4-62.902 24.2 0 55.2 13.781 55.2 62.043v30.16h87.9v-37.922"/><path d="m10389 622.57h261.9v-82.718h-174.1v-180.08h151.7v-82.731h-151.7v-180.09h174.1v-87.879h-261.9v613.5"/><path d="m4268.1 3329.9h-1107.7l-1550.9-2241.7-194.65 1137.1h-1107.3l539.98-2225.3h1074.8l2345.9 3329.9"/><path d="m11064 3658.2c-623.7-645.22-1411.8-998.99-2317.8-960.14-1522.1 65.16-2931.2 785.91-4387.3 1164.9-742.2 193.22-1483.7 319.43-2252.7 297.14-754.74-21.89-1461-274.33-2106.4-651.64v79.86c599.5 466.23 1235.3 798.69 1995.7 897.87 718.96 93.8 1488.7-68.82 2165.7-309.87 1411.6-502.64 2867.2-1232.4 4403.8-1167.4 902.47 38.19 1701.5 315.53 2499 724.22v-74.86"/></g></g></svg>
